<svg width="579" height="44" viewBox="0 0 579 44" fill="none" xmlns="http://www.w3.org/2000/svg">
    <path d="M13.824 6.44526C11.392 6.5306 9.68533 6.76526 8.704 7.14926C7.76533 7.4906 7.104 8.17326 6.72 9.19726C6.336 10.2213 5.99467 12.0773 5.696 14.7653L0.32 15.1493C0.405333 14.2959 0.533333 12.4399 0.704 9.58126C0.917333 6.7226 1.04533 3.99193 1.088 1.38926L1.792 0.685261L8.192 1.38926H28.16L34.688 0.685261L35.392 1.38926C35.4347 4.07726 35.5413 6.78659 35.712 9.51726C35.8827 12.2053 35.9893 13.9546 36.032 14.7653L30.656 15.1493C30.3147 12.2479 29.952 10.2853 29.568 9.26126C29.2267 8.1946 28.608 7.4906 27.712 7.14926C26.816 6.76526 25.216 6.5306 22.912 6.44526C22.7413 9.43193 22.592 13.6133 22.464 18.9893C22.336 24.3226 22.272 29.2719 22.272 33.8373C22.272 35.4159 22.528 36.5466 23.04 37.2293C23.5947 37.8693 24.4907 38.1893 25.728 38.1893C26.624 38.1893 27.3707 38.1679 27.968 38.1253C28.5653 38.0826 28.9493 38.0399 29.12 37.9973L29.376 38.3173L28.8 42.7333C27.9467 42.6906 26.3893 42.6266 24.128 42.5413C21.9093 42.4986 19.7547 42.4773 17.664 42.4773C16.1707 42.4773 14.208 42.5199 11.776 42.6053C9.344 42.7333 7.744 42.8186 6.976 42.8613L7.488 38.6373C9.45067 38.4666 10.8373 38.2106 11.648 37.8693C12.5013 37.4853 13.0773 36.8879 13.376 36.0773C13.6747 35.2239 13.824 33.8373 13.824 31.9173V6.44526ZM86.1655 33.5813C86.1655 34.7759 86.2508 35.6293 86.4215 36.1413C86.5922 36.6533 86.9548 36.9946 87.5095 37.1653C88.0642 37.3359 88.9815 37.4213 90.2615 37.4213C93.0348 37.4213 95.0402 37.2506 96.2775 36.9093C97.5148 36.5679 98.4108 35.9279 98.9655 34.9893C99.5202 34.0079 99.9468 32.3866 100.245 30.1253L105.621 29.6773L106.133 30.3173C106.006 30.9999 105.728 32.5146 105.301 34.8613C104.917 37.2079 104.597 39.6613 104.341 42.2213L103.701 42.9253C102.379 42.8826 99.5415 42.7973 95.1895 42.6693C90.8802 42.5413 87.0828 42.4773 83.7975 42.4773C81.4082 42.4773 79.1042 42.5626 76.8855 42.7333C74.7095 42.9039 73.3015 43.0319 72.6615 43.1173L73.1095 38.7653C74.9015 38.5093 76.1175 37.9973 76.7575 37.2293C77.3975 36.4613 77.7175 35.1386 77.7175 33.2613L77.7815 9.00526C77.7815 7.63993 77.6322 6.7226 77.3335 6.25326C77.0775 5.78393 76.5442 5.54926 75.7335 5.54926C75.3068 5.54926 74.9015 5.5706 74.5175 5.61326C74.1762 5.65593 73.9415 5.67726 73.8135 5.67726L73.3655 5.10126L73.8775 1.19726C74.6455 1.23993 76.1602 1.2826 78.4215 1.32526C80.6828 1.36793 83.0935 1.38926 85.6535 1.38926C94.6988 1.38926 101.184 1.13326 105.11 0.621262L105.621 1.32526C105.493 1.96526 105.259 3.4586 104.917 5.80526C104.576 8.10926 104.32 10.4986 104.149 12.9733L98.3255 13.3573C98.3255 13.1866 98.3468 12.8453 98.3895 12.3333C98.4322 11.8213 98.4535 11.3093 98.4535 10.7973C98.4535 9.55993 98.2615 8.68526 97.8775 8.17326C97.5362 7.6186 96.8108 7.25593 95.7015 7.08526C94.6348 6.87193 92.8428 6.76526 90.3255 6.76526C89.2588 6.76526 88.5122 6.80793 88.0855 6.89326C87.6588 6.9786 87.3602 7.1706 87.1895 7.46926C87.0615 7.72526 86.9975 8.1946 86.9975 8.87726L86.5495 18.7973L92.5015 18.8613C93.3975 18.8613 94.7202 18.7973 96.4695 18.6693C98.2188 18.4986 99.3708 18.3919 99.9255 18.3493L100.438 18.9253L99.5415 24.4293C98.9868 24.3866 97.8988 24.3439 96.2775 24.3013C94.6562 24.2586 92.9495 24.2373 91.1575 24.2373C90.2188 24.2373 88.5975 24.3653 86.2935 24.6213C86.2082 27.7359 86.1655 30.7226 86.1655 33.5813ZM156.609 43.2453C154.604 43.2453 152.769 43.0533 151.105 42.6693C149.441 42.3279 148.054 41.9439 146.945 41.5173C145.836 41.0906 145.281 40.8559 145.281 40.8133L144.769 39.9173C144.812 39.6186 144.897 38.9786 145.025 37.9973C145.196 36.9733 145.366 35.6079 145.537 33.9013C145.708 32.1946 145.793 30.5733 145.793 29.0373L151.169 28.5893C151.169 30.9786 151.382 32.8133 151.809 34.0933C152.236 35.3733 152.94 36.2693 153.921 36.7813C154.945 37.2933 156.374 37.5493 158.209 37.5493C160.214 37.5493 161.814 37.1013 163.009 36.2053C164.246 35.3093 164.865 34.1146 164.865 32.6213C164.865 31.6399 164.524 30.7653 163.841 29.9973C163.158 29.2293 162.326 28.5679 161.345 28.0133C160.364 27.4159 158.934 26.6479 157.057 25.7093L155.393 24.9413C152.236 23.4053 149.761 21.7839 147.969 20.0773C146.177 18.3706 145.281 16.1519 145.281 13.4213C145.281 10.9466 146.006 8.74926 147.457 6.82926C148.908 4.86659 150.934 3.35193 153.537 2.28526C156.14 1.17593 159.105 0.621262 162.433 0.621262C164.31 0.621262 166.06 0.749262 167.681 1.00526C169.302 1.26126 170.582 1.5386 171.521 1.83726C172.502 2.09326 173.121 2.26393 173.377 2.34926L173.825 3.18126C173.697 3.7786 173.441 5.16526 173.057 7.34126C172.716 9.4746 172.46 11.7573 172.289 14.1893L167.425 14.5733L166.849 14.1253C166.849 13.9973 166.849 13.7413 166.849 13.3573C166.892 12.9306 166.913 12.4399 166.913 11.8853C166.913 10.0079 166.444 8.68526 165.505 7.91726C164.566 7.1066 162.988 6.70126 160.769 6.70126C158.977 6.70126 157.505 7.12793 156.353 7.98126C155.201 8.83459 154.625 9.92259 154.625 11.2453C154.625 12.6959 155.308 13.9333 156.673 14.9573C158.038 15.9386 160.15 17.0906 163.009 18.4133C165.398 19.5653 167.361 20.6106 168.897 21.5493C170.433 22.4879 171.734 23.7039 172.801 25.1973C173.868 26.6479 174.401 28.3546 174.401 30.3173C174.401 32.8773 173.654 35.1386 172.161 37.1013C170.71 39.0639 168.641 40.5786 165.953 41.6453C163.265 42.7119 160.15 43.2453 156.609 43.2453ZM224.771 6.44526C222.339 6.5306 220.633 6.76526 219.651 7.14926C218.713 7.4906 218.051 8.17326 217.667 9.19726C217.283 10.2213 216.942 12.0773 216.643 14.7653L211.267 15.1493C211.353 14.2959 211.481 12.4399 211.651 9.58126C211.865 6.7226 211.993 3.99193 212.035 1.38926L212.739 0.685261L219.139 1.38926H239.107L245.635 0.685261L246.339 1.38926C246.382 4.07726 246.489 6.78659 246.659 9.51726C246.83 12.2053 246.937 13.9546 246.979 14.7653L241.603 15.1493C241.262 12.2479 240.899 10.2853 240.515 9.26126C240.174 8.1946 239.555 7.4906 238.659 7.14926C237.763 6.76526 236.163 6.5306 233.859 6.44526C233.689 9.43193 233.539 13.6133 233.411 18.9893C233.283 24.3226 233.219 29.2719 233.219 33.8373C233.219 35.4159 233.475 36.5466 233.987 37.2293C234.542 37.8693 235.438 38.1893 236.675 38.1893C237.571 38.1893 238.318 38.1679 238.915 38.1253C239.513 38.0826 239.897 38.0399 240.067 37.9973L240.323 38.3173L239.747 42.7333C238.894 42.6906 237.337 42.6266 235.075 42.5413C232.857 42.4986 230.702 42.4773 228.611 42.4773C227.118 42.4773 225.155 42.5199 222.723 42.6053C220.291 42.7333 218.691 42.8186 217.923 42.8613L218.435 38.6373C220.398 38.4666 221.785 38.2106 222.595 37.8693C223.449 37.4853 224.025 36.8879 224.323 36.0773C224.622 35.2239 224.771 33.8373 224.771 31.9173V6.44526ZM342.158 33.4533C342.158 34.9466 342.265 36.0133 342.478 36.6533C342.691 37.2933 343.097 37.7413 343.694 37.9973C344.291 38.2106 345.315 38.3386 346.766 38.3813L346.958 38.7653L346.382 42.7333C345.614 42.6906 344.227 42.6479 342.222 42.6053C340.259 42.5626 338.467 42.5413 336.846 42.5413C335.267 42.5413 333.625 42.5839 331.918 42.6693C330.254 42.7546 329.166 42.8186 328.654 42.8613L329.23 38.5733C331.022 38.3173 332.217 37.8479 332.814 37.1653C333.454 36.4399 333.774 35.1599 333.774 33.3253V8.68526C333.774 7.4906 333.625 6.67993 333.326 6.25326C333.07 5.78393 332.558 5.54926 331.79 5.54926C331.321 5.54926 330.851 5.5706 330.382 5.61326C329.955 5.65593 329.678 5.67726 329.55 5.67726L329.166 5.16526L329.742 1.26126C330.339 1.26126 331.449 1.2826 333.07 1.32526C334.691 1.36793 336.27 1.38926 337.806 1.38926C339.555 1.38926 341.433 1.3466 343.438 1.26126C345.443 1.17593 346.83 1.11193 347.598 1.06926C352.505 1.06926 356.259 2.02926 358.862 3.94926C361.465 5.8266 362.766 8.53593 362.766 12.0773C362.766 14.5946 362.019 16.8986 360.526 18.9893C359.075 21.0799 356.963 22.8506 354.19 24.3013L359.758 33.2613C360.91 35.1813 362.041 36.5893 363.15 37.4853C364.302 38.3386 365.539 38.7653 366.862 38.7653L367.31 39.4053L366.862 42.7973L359.246 43.5013C356.43 43.5013 354.083 41.5173 352.206 37.5493L346.766 26.4133H342.286L342.158 33.4533ZM348.238 21.2933C351.865 19.7999 353.678 17.1333 353.678 13.2933C353.678 10.9466 352.889 9.2186 351.31 8.10926C349.774 6.95726 347.385 6.38126 344.142 6.38126C343.715 6.38126 343.438 6.4666 343.31 6.63726C343.182 6.80793 343.097 7.19193 343.054 7.78926C342.713 13.0799 342.521 17.3679 342.478 20.6533L348.238 21.2933ZM417.203 33.5813C417.203 34.7759 417.288 35.6293 417.459 36.1413C417.63 36.6533 417.992 36.9946 418.547 37.1653C419.102 37.3359 420.019 37.4213 421.299 37.4213C424.072 37.4213 426.078 37.2506 427.315 36.9093C428.552 36.5679 429.448 35.9279 430.003 34.9893C430.558 34.0079 430.984 32.3866 431.283 30.1253L436.659 29.6773L437.171 30.3173C437.043 30.9999 436.766 32.5146 436.339 34.8613C435.955 37.2079 435.635 39.6613 435.379 42.2213L434.739 42.9253C433.416 42.8826 430.579 42.7973 426.227 42.6693C421.918 42.5413 418.12 42.4773 414.835 42.4773C412.446 42.4773 410.142 42.5626 407.923 42.7333C405.747 42.9039 404.339 43.0319 403.699 43.1173L404.147 38.7653C405.939 38.5093 407.155 37.9973 407.795 37.2293C408.435 36.4613 408.755 35.1386 408.755 33.2613L408.819 9.00526C408.819 7.63993 408.67 6.7226 408.371 6.25326C408.115 5.78393 407.582 5.54926 406.771 5.54926C406.344 5.54926 405.939 5.5706 405.555 5.61326C405.214 5.65593 404.979 5.67726 404.851 5.67726L404.403 5.10126L404.915 1.19726C405.683 1.23993 407.198 1.2826 409.459 1.32526C411.72 1.36793 414.131 1.38926 416.691 1.38926C425.736 1.38926 432.222 1.13326 436.147 0.621262L436.659 1.32526C436.531 1.96526 436.296 3.4586 435.955 5.80526C435.614 8.10926 435.358 10.4986 435.187 12.9733L429.363 13.3573C429.363 13.1866 429.384 12.8453 429.427 12.3333C429.47 11.8213 429.491 11.3093 429.491 10.7973C429.491 9.55993 429.299 8.68526 428.915 8.17326C428.574 7.6186 427.848 7.25593 426.739 7.08526C425.672 6.87193 423.88 6.76526 421.363 6.76526C420.296 6.76526 419.55 6.80793 419.123 6.89326C418.696 6.9786 418.398 7.1706 418.227 7.46926C418.099 7.72526 418.035 8.1946 418.035 8.87726L417.587 18.7973L423.539 18.8613C424.435 18.8613 425.758 18.7973 427.507 18.6693C429.256 18.4986 430.408 18.3919 430.963 18.3493L431.475 18.9253L430.579 24.4293C430.024 24.3866 428.936 24.3439 427.315 24.3013C425.694 24.2586 423.987 24.2373 422.195 24.2373C421.256 24.2373 419.635 24.3653 417.331 24.6213C417.246 27.7359 417.203 30.7226 417.203 33.5813ZM487.647 43.2453C485.641 43.2453 483.807 43.0533 482.143 42.6693C480.479 42.3279 479.092 41.9439 477.983 41.5173C476.873 41.0906 476.319 40.8559 476.319 40.8133L475.807 39.9173C475.849 39.6186 475.935 38.9786 476.063 37.9973C476.233 36.9733 476.404 35.6079 476.575 33.9013C476.745 32.1946 476.831 30.5733 476.831 29.0373L482.207 28.5893C482.207 30.9786 482.42 32.8133 482.847 34.0933C483.273 35.3733 483.977 36.2693 484.959 36.7813C485.983 37.2933 487.412 37.5493 489.247 37.5493C491.252 37.5493 492.852 37.1013 494.047 36.2053C495.284 35.3093 495.903 34.1146 495.903 32.6213C495.903 31.6399 495.561 30.7653 494.879 29.9973C494.196 29.2293 493.364 28.5679 492.383 28.0133C491.401 27.4159 489.972 26.6479 488.095 25.7093L486.431 24.9413C483.273 23.4053 480.799 21.7839 479.007 20.0773C477.215 18.3706 476.319 16.1519 476.319 13.4213C476.319 10.9466 477.044 8.74926 478.495 6.82926C479.945 4.86659 481.972 3.35193 484.575 2.28526C487.177 1.17593 490.143 0.621262 493.471 0.621262C495.348 0.621262 497.097 0.749262 498.719 1.00526C500.34 1.26126 501.62 1.5386 502.559 1.83726C503.54 2.09326 504.159 2.26393 504.415 2.34926L504.863 3.18126C504.735 3.7786 504.479 5.16526 504.095 7.34126C503.753 9.4746 503.497 11.7573 503.327 14.1893L498.463 14.5733L497.887 14.1253C497.887 13.9973 497.887 13.7413 497.887 13.3573C497.929 12.9306 497.951 12.4399 497.951 11.8853C497.951 10.0079 497.481 8.68526 496.543 7.91726C495.604 7.1066 494.025 6.70126 491.807 6.70126C490.015 6.70126 488.543 7.12793 487.391 7.98126C486.239 8.83459 485.663 9.92259 485.663 11.2453C485.663 12.6959 486.345 13.9333 487.711 14.9573C489.076 15.9386 491.188 17.0906 494.047 18.4133C496.436 19.5653 498.399 20.6106 499.935 21.5493C501.471 22.4879 502.772 23.7039 503.839 25.1973C504.905 26.6479 505.439 28.3546 505.439 30.3173C505.439 32.8773 504.692 35.1386 503.199 37.1013C501.748 39.0639 499.679 40.5786 496.991 41.6453C494.303 42.7119 491.188 43.2453 487.647 43.2453ZM555.809 6.44526C553.377 6.5306 551.67 6.76526 550.689 7.14926C549.75 7.4906 549.089 8.17326 548.705 9.19726C548.321 10.2213 547.98 12.0773 547.681 14.7653L542.305 15.1493C542.39 14.2959 542.518 12.4399 542.689 9.58126C542.902 6.7226 543.03 3.99193 543.073 1.38926L543.777 0.685261L550.177 1.38926H570.145L576.673 0.685261L577.377 1.38926C577.42 4.07726 577.526 6.78659 577.697 9.51726C577.868 12.2053 577.974 13.9546 578.017 14.7653L572.641 15.1493C572.3 12.2479 571.937 10.2853 571.553 9.26126C571.212 8.1946 570.593 7.4906 569.697 7.14926C568.801 6.76526 567.201 6.5306 564.897 6.44526C564.726 9.43193 564.577 13.6133 564.449 18.9893C564.321 24.3226 564.257 29.2719 564.257 33.8373C564.257 35.4159 564.513 36.5466 565.025 37.2293C565.58 37.8693 566.476 38.1893 567.713 38.1893C568.609 38.1893 569.356 38.1679 569.953 38.1253C570.55 38.0826 570.934 38.0399 571.105 37.9973L571.361 38.3173L570.785 42.7333C569.932 42.6906 568.374 42.6266 566.113 42.5413C563.894 42.4986 561.74 42.4773 559.649 42.4773C558.156 42.4773 556.193 42.5199 553.761 42.6053C551.329 42.7333 549.729 42.8186 548.961 42.8613L549.473 38.6373C551.436 38.4666 552.822 38.2106 553.633 37.8693C554.486 37.4853 555.062 36.8879 555.361 36.0773C555.66 35.2239 555.809 33.8373 555.809 31.9173V6.44526Z" fill="white" />
</svg>
